<svg xmlns="http://www.w3.org/2000/svg" viewBox="0 0 960 540" role="img" aria-label="Direction 2 Warm Trust">
  <defs>
    <linearGradient id="d2img" x1="0" y1="0" x2="1" y2="1">
      <stop offset="0" stop-color="#23201C"/><stop offset="1" stop-color="#4A3F31"/>
    </linearGradient>
  </defs>
  <rect width="960" height="540" fill="#FBF8F2"/>
  <!-- header -->
  <text x="40" y="46" font-family="Georgia, serif" font-size="22" font-weight="700" fill="#1E1A17">Real<tspan fill="#B8923F">Fair</tspan>Trust</text>
  <g font-family="Arial, sans-serif" font-size="12.5" fill="rgba(30,26,23,0.7)">
    <text x="430" y="44">Comprar</text><text x="510" y="44">Arrendar</text><text x="595" y="44">Vender</text><text x="675" y="44">Consultores</text>
  </g>
  <rect x="790" y="26" width="130" height="32" rx="16" fill="#1E1A17"/><text x="812" y="47" font-family="Arial, sans-serif" font-size="12.5" font-weight="700" fill="#FBF8F2">Falar com consultor</text>
  <line x1="40" y1="72" x2="920" y2="72" stroke="#E6DECF"/>
  <!-- left -->
  <text x="40" y="138" font-family="Arial, sans-serif" font-size="11" letter-spacing="3" fill="#B8923F">MERIT-BASED REAL ESTATE · PORTUGAL</text>
  <text x="38" y="194" font-family="Georgia, serif" font-size="44" fill="#211C17">A fairer way to</text>
  <text x="38" y="242" font-family="Georgia, serif" font-size="44" fill="#211C17">find your <tspan fill="#B8923F">agent</tspan>.</text>
  <text x="40" y="282" font-family="Arial, sans-serif" font-size="14.5" fill="rgba(30,26,23,0.62)">See how every consultant really performs — and choose with total confidence.</text>
  <rect x="40" y="306" width="186" height="48" rx="24" fill="#C8A86B"/><text x="66" y="335" font-family="Arial, sans-serif" font-size="14" font-weight="700" fill="#26200F">Find a consultant</text>
  <rect x="238" y="306" width="150" height="48" rx="24" fill="none" stroke="#B8923F"/><text x="262" y="335" font-family="Arial, sans-serif" font-size="14" fill="#8A6D2F">Browse homes</text>
  <rect x="40" y="372" width="448" height="50" rx="25" fill="#FFFFFF" stroke="#E6DECF"/>
  <text x="62" y="402" font-family="Arial, sans-serif" font-size="13" fill="rgba(30,26,23,0.55)">Cidade ▾        Comprar / Arrendar ▾</text>
  <rect x="396" y="380" width="84" height="34" rx="17" fill="#1E1A17"/><text x="414" y="402" font-family="Arial, sans-serif" font-size="12.5" font-weight="700" fill="#FBF8F2">Procurar</text>
  <text x="40" y="452" font-family="Arial, sans-serif" font-size="12" fill="rgba(30,26,23,0.45)">120+ verified consultants · scored monthly</text>
  <!-- right media -->
  <rect x="528" y="100" width="392" height="392" rx="20" fill="url(#d2img)"/>
  <text x="724" y="250" font-family="Arial, sans-serif" font-size="12" fill="rgba(245,241,234,0.35)" text-anchor="middle">image / contained video</text>
  <!-- proof card (light, friendly) -->
  <rect x="556" y="372" width="336" height="96" rx="16" fill="#FFFFFF"/>
  <text x="574" y="398" font-family="Arial, sans-serif" font-size="10" letter-spacing="2" fill="#B8923F">TOP THIS MONTH · LISBOA</text>
  <circle cx="592" cy="432" r="18" fill="#EFE7D6"/>
  <text x="622" y="428" font-family="Georgia, serif" font-size="15" fill="#211C17">Ana Silva</text>
  <rect x="622" y="438" width="64" height="16" rx="8" fill="#E6F6EE" stroke="#3FB984"/><text x="630" y="450" font-family="Arial, sans-serif" font-size="9.5" fill="#1E8F62">✓ Verified</text>
  <text x="832" y="450" font-family="Arial, sans-serif" font-size="11" fill="#8A6D2F">→ perfil</text>
  <!-- label -->
  <text x="40" y="516" font-family="Arial, sans-serif" font-size="12" font-weight="700" fill="#8A6D2F">DIRECTION 2 — WARM TRUST</text>
  <text x="300" y="516" font-family="Arial, sans-serif" font-size="11" fill="rgba(30,26,23,0.5)">light, approachable, human · rounded · more whitespace · inclusive</text>
</svg>
